<svg xmlns="http://www.w3.org/2000/svg" xmlns:xlink="http://www.w3.org/1999/xlink" viewBox="0 0 257.65 23.88"><defs><style>.cls-1{fill:none;}.cls-2{clip-path:url(#clip-path);}.cls-3{fill:#00a78b;}.cls-4{isolation:isolate;}.cls-5{fill:#222;}</style><clipPath id="clip-path" transform="translate(0.45 -0.19)"><rect class="cls-1" width="24" height="24"/></clipPath></defs><g id="レイヤー_2" data-name="レイヤー 2"><g id="レイヤー_1-2" data-name="レイヤー 1"><g id="コンポーネント_5_2" data-name="コンポーネント 5 – 2"><g id="アートワーク_1" data-name="アートワーク 1"><g class="cls-2"><g id="グループ_18" data-name="グループ 18"><path id="パス_35" data-name="パス 35" class="cls-3" d="M9.61,19.23A7.34,7.34,0,0,1,4.25,11l-3.36-.9c-.1.3-.15.55-.25.8l-1,3.06a2.76,2.76,0,0,0,.7,2.61L2.7,18.68c.35.3.75.7,1.15,1.1s.8.8,1.1,1.15L7.1,23.29a2.79,2.79,0,0,0,2.61.7l3.06-1a5.74,5.74,0,0,0,.8-.26l-.9-3.36a6.34,6.34,0,0,1-3.06-.15" transform="translate(0.45 -0.19)"/><path id="パス_36" data-name="パス 36" class="cls-3" d="M21.6,16.47c.1-.45.25-1,.4-1.55s.3-1.1.45-1.56l1-3.06a2.76,2.76,0,0,0-.7-2.61L20.39,5.53a6.2,6.2,0,0,1-.6-.55L17.33,7.44a7.33,7.33,0,0,1-3.06,11.49l.9,3.36c.3-.05.56-.15.8-.2l3.17-.65A2.8,2.8,0,0,0,21,19.53Z" transform="translate(0.45 -0.19)"/><path id="パス_37" data-name="パス 37" class="cls-3" d="M9.61,5a7.46,7.46,0,0,1,3.81,0,6.69,6.69,0,0,1,2.71,1.4l2.51-2.51a6.2,6.2,0,0,1-.55-.6L15.93,1a2.79,2.79,0,0,0-2.61-.7l-3.06,1a14.39,14.39,0,0,1-1.55.45L7.2,2.08l-3.15.65a2.63,2.63,0,0,0-1.86,1.9L1.54,7.8a7.79,7.79,0,0,1-.2.8l3.36.9A7.17,7.17,0,0,1,9.61,5" transform="translate(0.45 -0.19)"/></g></g></g><g id="Movable_Type_Block_Editor" data-name="Movable Type Block Editor" class="cls-4"><g class="cls-4"><path class="cls-5" d="M41.69,6.78a.23.23,0,0,1,.26-.2h2.84a.18.18,0,0,1,.2.2V20a.18.18,0,0,1-.2.2H43.23c-.14,0-.2-.06-.2-.2l.08-11.54a.49.49,0,0,0,0-.17.1.1,0,0,0-.08,0c-.07,0-.12.08-.16.22l-2.64,8.28a1.54,1.54,0,0,1-.13.28.29.29,0,0,1-.21.06H38.21A.45.45,0,0,1,38,17a.57.57,0,0,1-.14-.26l-2.4-8.3a1,1,0,0,0-.07-.2.1.1,0,0,0-.09,0c-.07,0-.1.09-.1.28L35.25,20a.18.18,0,0,1-.2.2H33.49c-.14,0-.2-.06-.2-.2V6.78a.18.18,0,0,1,.2-.2h3c.09,0,.16.07.22.2l2.3,8.3c.05.15.1.22.16.22s.13-.07.16-.22Z" transform="translate(0.45 -0.19)"/><path class="cls-5" d="M57,14.74a9.84,9.84,0,0,1-.35,2.71,4.91,4.91,0,0,1-.87,1.85,2.92,2.92,0,0,1-1.3.83,6.49,6.49,0,0,1-2,.25,6.2,6.2,0,0,1-2-.25,2.87,2.87,0,0,1-1.27-.83,4.91,4.91,0,0,1-.9-1.85A9.12,9.12,0,0,1,48,14.74a9.24,9.24,0,0,1,.34-2.66,4.69,4.69,0,0,1,.92-1.76,2.79,2.79,0,0,1,1.29-.81,7.21,7.21,0,0,1,2-.23,7.09,7.09,0,0,1,2,.23,2.92,2.92,0,0,1,1.28.81,5,5,0,0,1,.87,1.77A9.1,9.1,0,0,1,57,14.74Zm-7,0a11.36,11.36,0,0,0,0,1.19A9.92,9.92,0,0,0,50.12,17a4.54,4.54,0,0,0,.23.85,1.52,1.52,0,0,0,.32.57,1.22,1.22,0,0,0,.62.37,4.64,4.64,0,0,0,1.16.11,5,5,0,0,0,1.2-.11,1.16,1.16,0,0,0,.6-.37,1.67,1.67,0,0,0,.31-.57,4.54,4.54,0,0,0,.23-.85q.09-.48.15-1.05c0-.38,0-.77,0-1.19a11.55,11.55,0,0,0-.17-2.18,2.71,2.71,0,0,0-.56-1.32,1.33,1.33,0,0,0-.59-.37,4.71,4.71,0,0,0-1.18-.11,4.8,4.8,0,0,0-1.19.11,1.37,1.37,0,0,0-.62.37,2.71,2.71,0,0,0-.57,1.32A11.55,11.55,0,0,0,49.93,14.74Z" transform="translate(0.45 -0.19)"/><path class="cls-5" d="M64.56,20a.23.23,0,0,1-.23.16h-2.6a.15.15,0,0,1-.13-.06l-.08-.1c-.13-.36-.29-.83-.48-1.43s-.4-1.24-.6-1.94-.42-1.41-.63-2.14-.41-1.41-.6-2.06-.33-1.21-.46-1.71-.21-.85-.25-1.08.06-.18.19-.18h1.64c.09,0,.15.06.17.18.15.64.33,1.37.52,2.18s.41,1.63.63,2.45.42,1.61.62,2.35.4,1.37.56,1.86q0,.12.27.12t.3-.12c.16-.49.35-1.11.54-1.86s.41-1.53.62-2.35.4-1.63.59-2.45.37-1.54.52-2.18c0-.12.1-.18.25-.18h1.54c.11,0,.16.07.16.2s-.12.57-.25,1.07-.29,1.08-.47,1.73-.38,1.35-.61,2.08-.43,1.45-.64,2.14S65.23,18,65,18.62,64.7,19.67,64.56,20Z" transform="translate(0.45 -0.19)"/><path class="cls-5" d="M72.55,10.82c-.36,0-.76,0-1.2,0s-.8.08-1.12.13A.62.62,0,0,1,70,11a.12.12,0,0,1-.11-.11l-.14-1c0-.14,0-.24.12-.28a11.63,11.63,0,0,1,1.33-.26A14.88,14.88,0,0,1,73,9.28a4.48,4.48,0,0,1,2.82.75,3.05,3.05,0,0,1,.94,2.51v7.2a.29.29,0,0,1,0,.17.51.51,0,0,1-.21.13,7.59,7.59,0,0,1-1.27.24,15.41,15.41,0,0,1-1.87.1,14.41,14.41,0,0,1-2.17-.14,3.49,3.49,0,0,1-1.39-.48,1.83,1.83,0,0,1-.71-.89,3.87,3.87,0,0,1-.21-1.37A6.12,6.12,0,0,1,69,16.22a2.07,2.07,0,0,1,.48-1,2.56,2.56,0,0,1,1-.67,8.09,8.09,0,0,1,1.77-.4l2.5-.3q.12,0,.12-.12v-1a3.15,3.15,0,0,0-.13-1,1.34,1.34,0,0,0-.41-.59,1.68,1.68,0,0,0-.73-.3A6.85,6.85,0,0,0,72.55,10.82Zm2.36,4.6a.11.11,0,0,0-.12-.12H73a5.9,5.9,0,0,0-1,.08,1.4,1.4,0,0,0-.65.3,1.11,1.11,0,0,0-.33.6,4.42,4.42,0,0,0-.09,1,4,4,0,0,0,.08.95.79.79,0,0,0,.34.53A1.6,1.6,0,0,0,72,19a9.57,9.57,0,0,0,1.21.06l.87,0a3.88,3.88,0,0,0,.67-.09.42.42,0,0,0,.15-.07.09.09,0,0,0,0-.07Z" transform="translate(0.45 -0.19)"/><path class="cls-5" d="M83.57,20.38a13.21,13.21,0,0,1-1.86-.12,12.4,12.4,0,0,1-1.5-.3c-.12,0-.18-.1-.18-.2V5.68a.18.18,0,0,1,.2-.2h1.52a.18.18,0,0,1,.2.2V9.3c0,.1,0,.14.16.14a5,5,0,0,0,.72-.08A8.09,8.09,0,0,1,84,9.28a7.36,7.36,0,0,1,2.15.27,3.09,3.09,0,0,1,1.41.88A3.7,3.7,0,0,1,88.28,12a10.84,10.84,0,0,1,.23,2.4,14.55,14.55,0,0,1-.22,2.66,4.64,4.64,0,0,1-.77,1.86A3.14,3.14,0,0,1,86,20,7.33,7.33,0,0,1,83.57,20.38ZM82,18.56c0,.12,0,.19.14.22a3,3,0,0,0,.68.11l.78,0a4.87,4.87,0,0,0,1.57-.2A1.62,1.62,0,0,0,86,18a3.22,3.22,0,0,0,.4-1.33,19.66,19.66,0,0,0,.09-2.07,12.43,12.43,0,0,0-.13-1.93,2.86,2.86,0,0,0-.45-1.18,1.66,1.66,0,0,0-.87-.59,5.31,5.31,0,0,0-1.37-.16,6.65,6.65,0,0,0-.94.06,5.35,5.35,0,0,0-.64.12.27.27,0,0,0-.16.28Z" transform="translate(0.45 -0.19)"/><path class="cls-5" d="M94.94,20.22c-.21.05-.43.09-.65.12a5.44,5.44,0,0,1-.73,0,4.07,4.07,0,0,1-1-.11,1.46,1.46,0,0,1-.69-.38,1.67,1.67,0,0,1-.4-.72A4.5,4.5,0,0,1,91.36,18V5.68a.18.18,0,0,1,.2-.2h1.52a.18.18,0,0,1,.2.2v12.4a.71.71,0,0,0,.82.84H95a.18.18,0,0,1,.2.2l0,.84A.23.23,0,0,1,94.94,20.22Z" transform="translate(0.45 -0.19)"/><path class="cls-5" d="M104.86,19.8a7.91,7.91,0,0,1-3.21.58,6,6,0,0,1-2.46-.44,3.81,3.81,0,0,1-1.5-1.19A4.42,4.42,0,0,1,96.94,17a10,10,0,0,1-.21-2.16,9.64,9.64,0,0,1,.23-2.2,4.84,4.84,0,0,1,.75-1.76A3.75,3.75,0,0,1,99.1,9.7a4.84,4.84,0,0,1,2.13-.42,5.05,5.05,0,0,1,2,.35,3,3,0,0,1,1.24,1,3.62,3.62,0,0,1,.62,1.47,9,9,0,0,1,.17,1.85v.56a1.52,1.52,0,0,1-.13.79.42.42,0,0,1-.39.19H98.82c-.08,0-.11,0-.11.14a5.32,5.32,0,0,0,.21,1.64,2.19,2.19,0,0,0,1.7,1.52,6.16,6.16,0,0,0,1.42.14,6.31,6.31,0,0,0,1.42-.16,7,7,0,0,0,1.16-.36h.11a.2.2,0,0,1,.19.12l.08,1.06v.06A.19.19,0,0,1,104.86,19.8Zm-6.15-5.88c0,.09,0,.14.11.14h4.44a.2.2,0,0,0,.2-.1,2.2,2.2,0,0,0,0-.6,3.28,3.28,0,0,0-.49-2,2.11,2.11,0,0,0-1.78-.65A2.81,2.81,0,0,0,100,11a1.8,1.8,0,0,0-.77.67,2.9,2.9,0,0,0-.4,1A7.27,7.27,0,0,0,98.71,13.92Z" transform="translate(0.45 -0.19)"/><path class="cls-5" d="M113.74,8.34a.11.11,0,0,0-.12-.12h-2.84a.18.18,0,0,1-.2-.2V6.78a.18.18,0,0,1,.2-.2h7.88a.18.18,0,0,1,.2.2V8c0,.14-.06.2-.2.2h-2.84a.11.11,0,0,0-.12.12V20c0,.14-.06.2-.2.2h-1.56a.18.18,0,0,1-.2-.2Z" transform="translate(0.45 -0.19)"/><path class="cls-5" d="M122.76,20c0-.05-.1-.08-.3-.08H122a.57.57,0,0,1-.35-.08.43.43,0,0,1-.15-.18L121,18.21c-.19-.59-.39-1.22-.59-1.9l-.61-2.06c-.2-.7-.39-1.35-.56-2s-.31-1.14-.43-1.61-.2-.8-.24-1a.16.16,0,0,1,.18-.18h1.66q.15,0,.18.18l.32,1.38c.15.63.31,1.29.47,2s.34,1.37.5,2,.34,1.28.5,1.87.32,1.09.45,1.5c0,.08.11.12.28.12a.5.5,0,0,0,.2,0,.16.16,0,0,0,.1-.12c.16-.48.34-1.08.53-1.82s.39-1.5.58-2.32.39-1.62.57-2.43.36-1.53.5-2.17c0-.12.11-.18.28-.18h1.5c.11,0,.16.07.16.2s-.12.57-.25,1.07-.28,1.08-.47,1.73-.38,1.35-.59,2.08-.41,1.44-.63,2.13S125.15,18,125,18.6s-.33,1.06-.45,1.4a11.61,11.61,0,0,1-.77,1.84,4,4,0,0,1-.89,1.16,2.75,2.75,0,0,1-1.14.61,6.18,6.18,0,0,1-1.54.17,4.25,4.25,0,0,1-.76-.05.28.28,0,0,1-.24-.25l0-.8a.44.44,0,0,1,.07-.2.41.41,0,0,1,.19,0,9.39,9.39,0,0,0,1.3-.07,2.08,2.08,0,0,0,.88-.29,1.81,1.81,0,0,0,.61-.62,5.62,5.62,0,0,0,.49-1.06.89.89,0,0,0,.07-.23A.62.62,0,0,0,122.76,20Z" transform="translate(0.45 -0.19)"/><path class="cls-5" d="M133,9.28a9.3,9.3,0,0,1,2.46.27,3,3,0,0,1,1.51.91,3.63,3.63,0,0,1,.77,1.68,12.52,12.52,0,0,1,.22,2.58,9.73,9.73,0,0,1-.26,2.45,4.1,4.1,0,0,1-.83,1.7,3.29,3.29,0,0,1-1.48,1,6.49,6.49,0,0,1-2.21.32h-.45l-.48,0-.42,0h-.27c-.1,0-.16.05-.16.14v3.32a.18.18,0,0,1-.2.2H129.7a.18.18,0,0,1-.2-.2V9.9c0-.11.07-.17.2-.2.44-.11,1-.2,1.55-.29A13.42,13.42,0,0,1,133,9.28Zm-1.6,9.12c0,.15.07.23.2.24l.7.06.74,0a4.93,4.93,0,0,0,1.38-.16,1.63,1.63,0,0,0,.9-.6,2.81,2.81,0,0,0,.49-1.22,11.2,11.2,0,0,0,.15-2,11.89,11.89,0,0,0-.13-2,2.74,2.74,0,0,0-.46-1.21,1.68,1.68,0,0,0-.9-.6,5.87,5.87,0,0,0-1.47-.16,4.65,4.65,0,0,0-1.42.16.25.25,0,0,0-.18.26Z" transform="translate(0.45 -0.19)"/><path class="cls-5" d="M148.64,19.8a7.92,7.92,0,0,1-3.22.58,5.93,5.93,0,0,1-2.45-.44,3.81,3.81,0,0,1-1.5-1.19,4.57,4.57,0,0,1-.76-1.77,10.7,10.7,0,0,1-.21-2.16,10.24,10.24,0,0,1,.23-2.2,5,5,0,0,1,.76-1.76,3.75,3.75,0,0,1,1.39-1.16A4.83,4.83,0,0,1,145,9.28a5.07,5.07,0,0,1,2,.35,3,3,0,0,1,1.24,1,3.62,3.62,0,0,1,.62,1.47,9,9,0,0,1,.17,1.85v.56a1.52,1.52,0,0,1-.13.79.42.42,0,0,1-.39.19H142.6c-.08,0-.12,0-.12.14a5.28,5.28,0,0,0,.22,1.64,2.19,2.19,0,0,0,1.7,1.52,6.75,6.75,0,0,0,2.83,0,6.87,6.87,0,0,0,1.17-.36h.1a.2.2,0,0,1,.2.12l.08,1.06v.06A.19.19,0,0,1,148.64,19.8Zm-6.16-5.88c0,.09,0,.14.12.14H147c.1,0,.16,0,.19-.1a1.7,1.7,0,0,0,.05-.6,3.28,3.28,0,0,0-.49-2,2.11,2.11,0,0,0-1.79-.65,2.87,2.87,0,0,0-1.25.24,1.93,1.93,0,0,0-.77.67,3.1,3.1,0,0,0-.39,1A7.24,7.24,0,0,0,142.48,13.92Z" transform="translate(0.45 -0.19)"/><path class="cls-5" d="M160.12,6.58a5.36,5.36,0,0,1,3.12.74,3,3,0,0,1,1,2.62,3.83,3.83,0,0,1-.14,1.16,2.35,2.35,0,0,1-.37.78,2.22,2.22,0,0,1-.53.53c-.2.14-.4.28-.62.41l-.2.14a.21.21,0,0,0,0,.12q0,.12.18.18a3.62,3.62,0,0,1,.78.41,2.69,2.69,0,0,1,.63.63,2.92,2.92,0,0,1,.43.94,4.93,4.93,0,0,1,.16,1.36,4,4,0,0,1-.31,1.68,2.89,2.89,0,0,1-.82,1.1,3.06,3.06,0,0,1-1.19.61,5,5,0,0,1-1.4.19h-4.58a.18.18,0,0,1-.2-.2V6.78a.18.18,0,0,1,.2-.2Zm-1.08,6a10.58,10.58,0,0,0,1.33-.07,2.36,2.36,0,0,0,1-.32,1.55,1.55,0,0,0,.64-.74,3.27,3.27,0,0,0,.22-1.35,3.53,3.53,0,0,0-.11-1,1.21,1.21,0,0,0-.41-.64,1.85,1.85,0,0,0-.8-.35A6.34,6.34,0,0,0,159.64,8h-1.52a.11.11,0,0,0-.12.12v4.28a.14.14,0,0,0,.16.16Zm.5,6.1a9.4,9.4,0,0,0,1.42-.09,2,2,0,0,0,.92-.34,1.32,1.32,0,0,0,.49-.71,4,4,0,0,0,.15-1.22,3,3,0,0,0-.22-1.25,1.75,1.75,0,0,0-.61-.73,2.37,2.37,0,0,0-.91-.35,6.59,6.59,0,0,0-1.14-.09h-1.48c-.1,0-.16.06-.16.18v4.48c0,.08,0,.12.1.12Z" transform="translate(0.45 -0.19)"/><path class="cls-5" d="M170.9,20.22c-.21.05-.43.09-.65.12a5.44,5.44,0,0,1-.73,0,4.07,4.07,0,0,1-1-.11,1.46,1.46,0,0,1-.69-.38,1.67,1.67,0,0,1-.4-.72,4.5,4.5,0,0,1-.13-1.15V5.68a.18.18,0,0,1,.2-.2H169a.18.18,0,0,1,.2.2v12.4a.71.71,0,0,0,.82.84h.86a.18.18,0,0,1,.2.2l0,.84A.23.23,0,0,1,170.9,20.22Z" transform="translate(0.45 -0.19)"/><path class="cls-5" d="M181.66,14.74a9.85,9.85,0,0,1-.34,2.71,4.76,4.76,0,0,1-.88,1.85,2.86,2.86,0,0,1-1.3.83,6.49,6.49,0,0,1-2,.25,6.2,6.2,0,0,1-1.95-.25,2.93,2.93,0,0,1-1.27-.83,5.06,5.06,0,0,1-.9-1.85,9.46,9.46,0,0,1-.36-2.71,9.22,9.22,0,0,1,.35-2.66,4.83,4.83,0,0,1,.91-1.76,2.88,2.88,0,0,1,1.3-.81,7.21,7.21,0,0,1,2-.23,7,7,0,0,1,2,.23,2.81,2.81,0,0,1,1.28.81,4.88,4.88,0,0,1,.88,1.77A9.12,9.12,0,0,1,181.66,14.74Zm-7,0c0,.42,0,.81.05,1.19s.08.73.14,1.05a5.47,5.47,0,0,0,.23.85,1.86,1.86,0,0,0,.32.57,1.26,1.26,0,0,0,.62.37,4.69,4.69,0,0,0,1.16.11,4.84,4.84,0,0,0,1.2-.11,1.08,1.08,0,0,0,.6-.37,1.68,1.68,0,0,0,.32-.57,4.54,4.54,0,0,0,.23-.85,9.92,9.92,0,0,0,.14-1.05,11.36,11.36,0,0,0,0-1.19,11.48,11.48,0,0,0-.18-2.18,2.62,2.62,0,0,0-.56-1.32,1.22,1.22,0,0,0-.59-.37,4.56,4.56,0,0,0-1.17-.11,5,5,0,0,0-1.2.11,1.43,1.43,0,0,0-.62.37,2.71,2.71,0,0,0-.56,1.32A11.48,11.48,0,0,0,174.64,14.74Z" transform="translate(0.45 -0.19)"/><path class="cls-5" d="M190.48,20.1a6,6,0,0,1-.95.2,8.23,8.23,0,0,1-1.13.08,5,5,0,0,1-2-.36A3.25,3.25,0,0,1,185.08,19a4.6,4.6,0,0,1-.72-1.71,11.77,11.77,0,0,1-.22-2.36,11.86,11.86,0,0,1,.22-2.34,5.06,5.06,0,0,1,.72-1.77,3.33,3.33,0,0,1,1.32-1.12,4.66,4.66,0,0,1,2-.39,8.49,8.49,0,0,1,1.22.08,4.26,4.26,0,0,1,.82.2c.06,0,.08.06.08.14l-.08,1.2c0,.1,0,.12-.12.08a5.84,5.84,0,0,0-1.72-.26,2.78,2.78,0,0,0-1.19.22,1.85,1.85,0,0,0-.76.71,3.69,3.69,0,0,0-.4,1.3,15.59,15.59,0,0,0-.11,2,12.06,12.06,0,0,0,.12,1.86,3.55,3.55,0,0,0,.4,1.23,1.61,1.61,0,0,0,.76.68,3,3,0,0,0,1.18.21,6.73,6.73,0,0,0,.88-.06,6.62,6.62,0,0,0,.76-.14l.12,0s.07,0,.08.08l.12,1.18A.12.12,0,0,1,190.48,20.1Z" transform="translate(0.45 -0.19)"/><path class="cls-5" d="M194.78,13.36a.16.16,0,0,0,.07.14.66.66,0,0,0,.29,0,.8.8,0,0,0,.44-.08c.24-.26.51-.57.81-.92l.9-1c.3-.34.58-.68.84-1l.67-.83a.88.88,0,0,1,.15-.14.63.63,0,0,1,.23,0h1.7q.33,0,.24.18c-.09.12-.29.35-.59.68l-1,1.15c-.38.43-.79.88-1.22,1.33s-.8.86-1.14,1.22a.31.31,0,0,0-.14.24c0,.07.06.16.18.28l.6.76.78,1,.85,1.11.81,1.07.67.89c.2.26.33.44.41.56a.16.16,0,0,1,0,.15c0,.05-.11.07-.27.07h-1.68a.49.49,0,0,1-.2,0A.51.51,0,0,1,199,20l-.75-1.08-.93-1.32c-.32-.45-.63-.89-.94-1.31s-.56-.76-.78-1a.29.29,0,0,0-.15-.14.63.63,0,0,0-.31-.06.7.7,0,0,0-.32,0,.17.17,0,0,0-.06.14V20c0,.14-.06.2-.2.2h-1.52a.18.18,0,0,1-.2-.2V5.68a.18.18,0,0,1,.2-.2h1.52a.18.18,0,0,1,.2.2Z" transform="translate(0.45 -0.19)"/><path class="cls-5" d="M207.22,6.78a.18.18,0,0,1,.2-.2H214a.18.18,0,0,1,.2.2V8c0,.14-.06.2-.2.2H209.3a.11.11,0,0,0-.12.12v3.94a.11.11,0,0,0,.12.12h4.4a.18.18,0,0,1,.2.2v1.12c0,.14-.06.2-.2.2h-4.4a.11.11,0,0,0-.12.12v4.38a.11.11,0,0,0,.12.12h5a.18.18,0,0,1,.2.2V20c0,.14-.06.2-.2.2h-6.9a.18.18,0,0,1-.2-.2Z" transform="translate(0.45 -0.19)"/><path class="cls-5" d="M221.56,20.38a8,8,0,0,1-2.44-.31,3.11,3.11,0,0,1-1.52-1,4,4,0,0,1-.78-1.76,13.86,13.86,0,0,1-.22-2.62,6.15,6.15,0,0,1,1.15-4.14,4.79,4.79,0,0,1,3.71-1.28,5.49,5.49,0,0,1,.95.07,4,4,0,0,0,.61.07c.1,0,.14-.06.14-.18V5.68a.18.18,0,0,1,.2-.2h1.52a.18.18,0,0,1,.2.2v14a.23.23,0,0,1-.2.24,12.54,12.54,0,0,1-1.46.29A11.8,11.8,0,0,1,221.56,20.38Zm1.6-9.2a.23.23,0,0,0-.14-.24,2.91,2.91,0,0,0-.66-.13,8.43,8.43,0,0,0-.86-.05,5.49,5.49,0,0,0-1.38.15,1.71,1.71,0,0,0-.9.57,2.79,2.79,0,0,0-.48,1.19,12.2,12.2,0,0,0-.14,2,19.45,19.45,0,0,0,.09,2.06,3.07,3.07,0,0,0,.4,1.3,1.62,1.62,0,0,0,.9.67,5.21,5.21,0,0,0,1.57.19c.23,0,.48,0,.75,0a2,2,0,0,0,.67-.12.26.26,0,0,0,.15-.1.27.27,0,0,0,0-.12Z" transform="translate(0.45 -0.19)"/><path class="cls-5" d="M228.56,7.38a.18.18,0,0,1-.2-.2V5.5a.18.18,0,0,1,.2-.2h1.7a.18.18,0,0,1,.2.2V7.18c0,.14-.06.2-.2.2Zm.08,12.8a.18.18,0,0,1-.2-.2V9.68a.18.18,0,0,1,.2-.2h1.52a.18.18,0,0,1,.2.2V20c0,.14-.06.2-.2.2Z" transform="translate(0.45 -0.19)"/><path class="cls-5" d="M237.94,20.22l-.68.11a4.36,4.36,0,0,1-.72.05,2.23,2.23,0,0,1-1.67-.55,2.1,2.1,0,0,1-.53-1.51V11.08a.11.11,0,0,0-.12-.12h-1.6a.18.18,0,0,1-.2-.2V9.68a.18.18,0,0,1,.2-.2h1.6a.11.11,0,0,0,.12-.12V6.86a.18.18,0,0,1,.2-.2h1.52a.18.18,0,0,1,.2.2v2.5a.11.11,0,0,0,.12.12h1.88a.18.18,0,0,1,.2.2v1.08c0,.14-.06.2-.2.2h-1.88a.11.11,0,0,0-.12.12v7a.87.87,0,0,0,.2.65,1,1,0,0,0,.68.19H238a.18.18,0,0,1,.2.2l0,.84A.23.23,0,0,1,237.94,20.22Z" transform="translate(0.45 -0.19)"/><path class="cls-5" d="M249,14.74a9.85,9.85,0,0,1-.34,2.71,4.76,4.76,0,0,1-.88,1.85,2.86,2.86,0,0,1-1.3.83,6.49,6.49,0,0,1-2,.25,6.2,6.2,0,0,1-1.95-.25,2.93,2.93,0,0,1-1.27-.83,5.06,5.06,0,0,1-.9-1.85,9.46,9.46,0,0,1-.36-2.71,9.22,9.22,0,0,1,.35-2.66,4.83,4.83,0,0,1,.91-1.76,2.88,2.88,0,0,1,1.3-.81,7.21,7.21,0,0,1,2-.23,7,7,0,0,1,2,.23,2.81,2.81,0,0,1,1.28.81,4.88,4.88,0,0,1,.88,1.77A9.12,9.12,0,0,1,249,14.74Zm-7,0c0,.42,0,.81,0,1.19s.08.73.14,1.05a5.47,5.47,0,0,0,.23.85,1.86,1.86,0,0,0,.32.57,1.26,1.26,0,0,0,.62.37,4.69,4.69,0,0,0,1.16.11,4.84,4.84,0,0,0,1.2-.11,1.08,1.08,0,0,0,.6-.37,1.68,1.68,0,0,0,.32-.57,4.54,4.54,0,0,0,.23-.85,9.92,9.92,0,0,0,.14-1.05,11.36,11.36,0,0,0,.05-1.19,11.48,11.48,0,0,0-.18-2.18,2.62,2.62,0,0,0-.56-1.32,1.22,1.22,0,0,0-.59-.37,4.56,4.56,0,0,0-1.17-.11,5,5,0,0,0-1.2.11,1.43,1.43,0,0,0-.62.37,2.71,2.71,0,0,0-.56,1.32A11.48,11.48,0,0,0,242,14.74Z" transform="translate(0.45 -0.19)"/><path class="cls-5" d="M252.06,9.7c.44-.11.94-.2,1.48-.29a11.82,11.82,0,0,1,1.7-.13l1,0a7.69,7.69,0,0,1,.86.08.15.15,0,0,1,.12.16l-.1,1.28c0,.07,0,.1-.14.08a10.87,10.87,0,0,0-1.7-.12,6.68,6.68,0,0,0-.7,0,1.8,1.8,0,0,0-.64.16.28.28,0,0,0-.14.24V20c0,.16-.08.23-.24.2h-1.48a.18.18,0,0,1-.2-.2V9.9C251.86,9.79,251.93,9.73,252.06,9.7Z" transform="translate(0.45 -0.19)"/></g></g></g></g></g></svg>