<?xml version="1.0" encoding="utf-8"?>
<!-- Generator: Adobe Illustrator 26.0.2, SVG Export Plug-In . SVG Version: 6.00 Build 0)  -->
<svg version="1.1" id="レイヤー_1" xmlns="http://www.w3.org/2000/svg" xmlns:xlink="http://www.w3.org/1999/xlink" x="0px"
	 y="0px" viewBox="0 0 24 24" style="enable-background:new 0 0 24 24;" xml:space="preserve">
<style type="text/css">
	.st0{fill:none;}
	.st1{fill:none;stroke:#666666;stroke-width:2;stroke-linecap:round;stroke-linejoin:round;}
	.st2{fill:#FFFFFF;}
	.st3{fill:none;stroke:#666666;stroke-width:2;stroke-linecap:round;stroke-miterlimit:10;}
</style>
<desc>Download more icon variants from https://tabler-icons.io/i/clipboard</desc>
<path class="st0" d="M0,0h24v24H0V0z"/>
<path class="st1" d="M9,5H7C5.9,5,5,5.9,5,7v12c0,1.1,0.9,2,2,2h10c1.1,0,2-0.9,2-2V7c0-1.1-0.9-2-2-2h-2"/>
<path class="st1" d="M11,3h2c1.1,0,2,0.9,2,2l0,0c0,1.1-0.9,2-2,2h-2C9.9,7,9,6.1,9,5l0,0C9,3.9,9.9,3,11,3z"/>
<rect x="18" y="7" class="st2" width="2.2" height="12"/>
<path class="st1" d="M20.2,13.7h-6"/>
<path class="st1" d="M16.7,16.2l-2.5-2.5l2.5-2.5"/>
<line class="st3" x1="19" y1="7" x2="19" y2="8.3"/>
<line class="st3" x1="19" y1="19.2" x2="19" y2="19.1"/>
</svg>
