<?xml version="1.0" encoding="utf-8"?>
<!-- Generator: Adobe Illustrator 24.0.1, SVG Export Plug-In . SVG Version: 6.00 Build 0)  -->
<svg version="1.1"
	 id="svg3741" inkscape:version="0.48.3.1 r9886" sodipodi:docname="trash_font_awesome.svg" xmlns:cc="http://creativecommons.org/ns#" xmlns:dc="http://purl.org/dc/elements/1.1/" xmlns:inkscape="http://www.inkscape.org/namespaces/inkscape" xmlns:rdf="http://www.w3.org/1999/02/22-rdf-syntax-ns#" xmlns:sodipodi="http://sodipodi.sourceforge.net/DTD/sodipodi-0.dtd" xmlns:svg="http://www.w3.org/2000/svg"
	 xmlns="http://www.w3.org/2000/svg" xmlns:xlink="http://www.w3.org/1999/xlink" x="0px" y="0px" viewBox="0 0 50 50"
	 style="enable-background:new 0 0 50 50;" xml:space="preserve">
<style type="text/css">
	.st0{fill:#666666;}
</style>
<sodipodi:namedview  bordercolor="#666666" borderopacity="1" gridtolerance="10" guidetolerance="10" id="namedview3747" inkscape:current-layer="svg3741" inkscape:cx="896" inkscape:cy="896" inkscape:pageopacity="0" inkscape:pageshadow="2" inkscape:window-height="480" inkscape:window-maximized="0" inkscape:window-width="640" inkscape:window-x="0" inkscape:window-y="25" inkscape:zoom="0.13169643" objecttolerance="10" pagecolor="#ffffff" showgrid="false">
	</sodipodi:namedview>
<path class="st0" d="M8.3,43.1c0,2.3,1.9,4.2,4.2,4.2l0,0h25.1c2.3,0,4.2-1.9,4.2-4.2l0,0V13.9H8.3V43.1z M32,20.8
	c0-0.8,0.6-1.4,1.4-1.4s1.4,0.6,1.4,1.4v19.5c0,0.8-0.6,1.4-1.4,1.4S32,41.1,32,40.3V20.8z M23.6,20.8c0-0.8,0.6-1.4,1.4-1.4
	s1.4,0.6,1.4,1.4v19.5c0,0.8-0.6,1.4-1.4,1.4s-1.4-0.6-1.4-1.4V20.8z M15.2,20.8c0-0.8,0.6-1.4,1.4-1.4c0.8,0,1.4,0.6,1.4,1.4v19.5
	c0,0.8-0.6,1.4-1.4,1.4c-0.8,0-1.4-0.6-1.4-1.4V20.8z M43.1,5.5H32.7l-0.8-1.6c-0.4-0.7-1.1-1.2-1.9-1.2H20c-0.8,0-1.5,0.4-1.9,1.2
	l-0.8,1.6H6.9c-0.8,0-1.4,0.6-1.4,1.4v2.8c0,0.8,0.6,1.4,1.4,1.4h36.2c0.8,0,1.4-0.6,1.4-1.4V6.9C44.5,6.1,43.9,5.5,43.1,5.5z"/>
</svg>
