<svg xmlns="http://www.w3.org/2000/svg" viewBox="0 0 50 50"><style>.st0{fill:#666}</style><path class="st0" d="M8.3 43.1c0 2.3 1.9 4.2 4.2 4.2h25.1c2.3 0 4.2-1.9 4.2-4.2V13.9H8.3v29.2zM32 20.8c0-.8.6-1.4 1.4-1.4s1.4.6 1.4 1.4v19.5c0 .8-.6 1.4-1.4 1.4s-1.4-.6-1.4-1.4V20.8zm-8.4 0c0-.8.6-1.4 1.4-1.4s1.4.6 1.4 1.4v19.5c0 .8-.6 1.4-1.4 1.4s-1.4-.6-1.4-1.4V20.8zm-8.4 0c0-.8.6-1.4 1.4-1.4.8 0 1.4.6 1.4 1.4v19.5c0 .8-.6 1.4-1.4 1.4-.8 0-1.4-.6-1.4-1.4V20.8zM43.1 5.5H32.7l-.8-1.6c-.4-.7-1.1-1.2-1.9-1.2H20c-.8 0-1.5.4-1.9 1.2l-.8 1.6H6.9c-.8 0-1.4.6-1.4 1.4v2.8c0 .8.6 1.4 1.4 1.4h36.2c.8 0 1.4-.6 1.4-1.4V6.9c0-.8-.6-1.4-1.4-1.4z"/></svg>
