<svg xmlns="http://www.w3.org/2000/svg" viewBox="0 0 512 512"><style>.st0{fill:#666}</style><path class="st0" d="M136.6 142.4H76v21.9c0 2.1-1.7 3.8-3.8 3.8H47.4c-2.1 0-3.8-1.7-3.8-3.8v-61.1c0-2.1 1.7-3.8 3.8-3.8h228.3c2.1 0 3.8 1.7 3.8 3.8v61.1c0 2.1-1.7 3.8-3.8 3.8h-24.8c-2.1 0-3.8-1.7-3.8-3.8v-21.9h-60.6V306h21.9c2.1 0 3.8 1.7 3.8 3.8v25.7c0 2.1-1.7 3.8-3.8 3.8h-93.7c-2.1 0-3.8-1.7-3.8-3.8v-25.7c0-2.1 1.7-3.8 3.8-3.8h21.9V142.4zM414.1 136c0-25.4 31.8-27.3 47.5-27.3 3.8 0 6.8-3 6.8-6.8V79.3c0-3.7-3-6.7-6.7-6.8-18.4-.2-44 0-65.8 21.5-21.4-21.1-45.9-21.6-65.8-21.4-3.7 0-6.7 3.1-6.7 6.8v22.5c0 3.8 3.1 6.8 6.9 6.8 14.7-.2 47.5 2 47.5 27.4v163c0 25.4-31.8 27.2-47.5 27.2-3.8 0-6.8 3-6.8 6.8v22.6c0 3.7 3 6.7 6.7 6.8 18.4.2 44 0 65.8-21.5 21.4 21.1 45.9 21.6 65.8 21.4 3.7 0 6.7-3.1 6.7-6.8v-22.5c0-3.8-3.1-6.8-6.9-6.8-14.7.2-47.5-1.9-47.5-27.3V136zM474.5 439.5h-437c-8.2 0-14.9-6.7-14.9-14.9v-6.3c0-8.2 6.7-14.9 14.9-14.9h437.1c8.2 0 14.9 6.7 14.9 14.9v6.3c-.1 8.2-6.8 14.9-15 14.9z"/></svg>
