<?xml version="1.0" standalone="no"?>
<!DOCTYPE svg PUBLIC "-//W3C//DTD SVG 20010904//EN"
 "http://www.w3.org/TR/2001/REC-SVG-20010904/DTD/svg10.dtd">
<svg version="1.0" xmlns="http://www.w3.org/2000/svg"
 width="512.000000pt" height="512.000000pt" viewBox="0 0 512.000000 512.000000"
 preserveAspectRatio="xMidYMid meet">

<g transform="translate(0.000000,512.000000) scale(0.100000,-0.100000)"
fill="#000000" stroke="none">
<path d="M555 3986 c-95 -30 -162 -88 -204 -176 l-26 -55 0 -1195 0 -1195 26
-56 c33 -71 87 -125 158 -158 l56 -26 1995 0 1995 0 55 26 c70 33 126 89 159
159 l26 55 0 1195 0 1195 -26 56 c-33 71 -87 125 -158 158 l-56 26 -1980 2
c-1577 1 -1988 -1 -2020 -11z m3841 -322 c19 -9 44 -31 57 -48 l22 -31 0
-1025 0 -1025 -22 -31 c-49 -69 103 -64 -1893 -64 -1996 0 -1844 -5 -1893 64
l-22 31 0 1025 0 1025 22 31 c49 69 -105 64 1891 64 1644 0 1807 -1 1838 -16z"/>
<path d="M1043 3340 c-30 -15 -48 -34 -62 -64 -21 -41 -21 -57 -21 -712 0
-631 2 -671 19 -710 53 -118 225 -124 280 -10 21 41 21 56 21 712 0 631 -2
671 -19 710 -37 82 -136 116 -218 74z"/>
</g>
</svg>
