<svg xmlns="http://www.w3.org/2000/svg" viewBox="0 0 512 512"><style>.st0{fill:#666}</style><path class="st0" d="M12.3 316h395.4c6.8 0 12.3-6.2 12.3-13.8v-54.4c0-7.6-5.5-13.8-12.3-13.8H12.3c-6.8.1-12.3 6.3-12.3 13.9v54.4c0 7.5 5.5 13.7 12.3 13.7zM12.3 462h395.4c6.8 0 12.3-6.2 12.3-13.8v-54.4c0-7.6-5.5-13.8-12.3-13.8H12.3c-6.8.1-12.3 6.3-12.3 13.9v54.4c0 7.5 5.5 13.7 12.3 13.7zM499.8 50H12.3C5.5 50 0 55.5 0 62.3v95.5c0 6.7 5.5 12.2 12.3 12.2h487.5c6.8 0 12.3-5.5 12.3-12.3V62.3c0-6.8-5.5-12.3-12.3-12.3zM485 101.4l-22.5 25.9c-1.4 1.6-4 1.6-5.4 0l-22.5-25.9c-2-2.3-.3-5.8 2.7-5.8h44.9c3.1 0 4.8 3.5 2.8 5.8z"/></svg>
