<?xml version="1.0"?>
<svg version="1.1" id="圖層_1" xmlns="http://www.w3.org/2000/svg" x="0" y="0" viewBox="0 0 100 100" xml:space="preserve"><g><path d="M83.605 23.556h-67.21c-4.905 0-8.895 3.813-8.895 8.5v35.889c0 4.687 3.99 8.5 8.895 8.5h67.209c4.905 0 8.895-3.813 8.895-8.5V32.056c.001-4.687-3.989-8.5-8.894-8.5z" fill="#333"/><path d="M86.57 67.944c0 1.562-1.33 2.833-2.965 2.833h-67.21c-1.635 0-2.965-1.271-2.965-2.833V32.056c0-1.562 1.33-2.833 2.965-2.833h67.209c1.635 0 2.965 1.271 2.965 2.833v35.888z" fill="#fff"/><g><path fill="#333" d="M50.024 27.398h3.778v45.509h-3.778z"/></g></g><path d="M81.221 43.233a2.835 2.835 0 0 1-.001 2.834l-8.372 14.481a2.833 2.833 0 0 1-4.906 0L59.57 46.066a2.835 2.835 0 0 1 2.453-4.252h16.744a2.837 2.837 0 0 1 2.454 1.419z" fill="#333"/><metadata xmlns:d="https://loading.io/stock/"><d:name>dropdown</d:name><d:tags>dropup,select,choice,option,menu,dropdown,form</d:tags><d:license>free</d:license><d:slug>qci2as</d:slug></metadata></svg>