<svg xmlns="http://www.w3.org/2000/svg" viewBox="0 0 512 512"><style>.st0{fill:#666}</style><path class="st0" d="M475.1 114.3c11.5 0 20.9 9.3 20.9 20.8V376c0 5.5-2.1 10.7-6 14.6-3.9 4-9.2 6.1-14.8 6.1H37.8c-11.5 0-20.9-9.4-20.9-20.9V135.1c0-11.5 9.4-20.8 20.9-20.8h437.3m0-16H37.8C17.4 98.3.9 114.8.9 135.1v240.8c0 20.4 16.5 36.9 36.9 36.9h437.4c20.4 0 36.9-16.5 36.8-36.8V135.1c0-20.3-16.5-36.8-36.9-36.8z"/><path class="st0" d="M153.7 182.7c0 1-.8 1.8-1.8 1.8h-11.3c-1 0-1.8-.8-1.8-1.8v-10h-27.7v74.6h9.9c1 0 1.8.8 1.8 1.8v11.7c0 1-.8 1.8-1.8 1.8H78.4c-1 0-1.8-.8-1.8-1.8v-11.7c0-1 .8-1.8 1.8-1.8h10l.1-74.6H60.8v10c0 1-.8 1.8-1.8 1.8H47.8c-1 0-1.8-.8-1.8-1.8v-27.9c0-1 .8-1.8 1.8-1.8h104.1c1 0 1.8.8 1.8 1.8v27.9zm93.3-25.2c0 1.6-1.3 2.9-3 2.9-6.9 0-20.7.8-20.7 11.9v71.1c0 11.1 14.3 12 20.7 11.9 1.6 0 3 1.3 3 2.9v9.8c0 1.6-1.3 2.9-2.9 2.9-8.6.1-19.3-.1-28.7-9.3-9.5 9.4-20.7 9.5-28.7 9.4-1.6 0-2.9-1.3-2.9-2.9v-9.8c0-1.6 1.3-2.9 3-2.9 6.9 0 20.7-.8 20.7-11.8v-71.2c0-11.1-14.3-12-20.7-12-1.6 0-3-1.3-3-2.9v-9.8c0-1.6 1.3-2.9 2.9-2.9 8.6-.1 19.3.1 28.7 9.3 9.5-9.4 20.7-9.5 28.7-9.4 1.6 0 2.9 1.3 2.9 2.9v9.9z"/></svg>
