<?xml version="1.0" encoding="utf-8"?>
<!-- Generator: Adobe Illustrator 24.0.1, SVG Export Plug-In . SVG Version: 6.00 Build 0)  -->
<svg version="1.1" id="レイヤー_1" focusable="false"
	 xmlns="http://www.w3.org/2000/svg" xmlns:xlink="http://www.w3.org/1999/xlink" x="0px" y="0px" viewBox="0 0 448 512"
	 style="enable-background:new 0 0 448 512;" xml:space="preserve">
<style type="text/css">
	.st0{fill:#666666;}
</style>
<path class="st0" d="M448,48v32c0,8.8-7.2,16-16,16h-48v368c0,8.8-7.2,16-16,16h-32c-8.8,0-16-7.2-16-16V96h-32v368
	c0,8.8-7.2,16-16,16h-32c-8.8,0-16-7.2-16-16V352h-32c-88.4,0-160-71.6-160-160S103.6,32,192,32h240C440.8,32,448,39.2,448,48z"/>
</svg>
