<?xml version="1.0" encoding="utf-8"?>
<!-- Generator: Adobe Illustrator 24.0.1, SVG Export Plug-In . SVG Version: 6.00 Build 0)  -->
<svg version="1.1" id="レイヤー_1" focusable="false"
	 xmlns="http://www.w3.org/2000/svg" xmlns:xlink="http://www.w3.org/1999/xlink" x="0px" y="0px" viewBox="0 0 384 512"
	 style="enable-background:new 0 0 384 512;" xml:space="preserve">
<style type="text/css">
	.st0{fill:#666666;}
</style>
<path class="st0" d="M288,248v28c0,6.6-5.4,12-12,12H108c-6.6,0-12-5.4-12-12v-28c0-6.6,5.4-12,12-12h168
	C282.6,236,288,241.4,288,248z M276,320H108c-6.6,0-12,5.4-12,12v28c0,6.6,5.4,12,12,12h168c6.6,0,12-5.4,12-12v-28
	C288,325.4,282.6,320,276,320z M384,131.9V464c0,26.5-21.5,48-48,48H48c-26.5,0-48-21.5-48-48V48C0,21.5,21.5,0,48,0h204.1
	C264.8,0,277,5.1,286,14.1L369.9,98C378.9,106.9,384,119.2,384,131.9z M256,51.9V128h76.1C332.1,128,256,51.9,256,51.9z M336,464
	V176H232c-13.3,0-24-10.7-24-24V48H48v416H336z"/>
</svg>
