<?xml version="1.0" encoding="utf-8"?>
<!-- Generator: Adobe Illustrator 24.0.1, SVG Export Plug-In . SVG Version: 6.00 Build 0)  -->
<svg version="1.1" id="レイヤー_1" focusable="false"
	 xmlns="http://www.w3.org/2000/svg" xmlns:xlink="http://www.w3.org/1999/xlink" x="0px" y="0px" viewBox="0 0 640 512"
	 style="enable-background:new 0 0 640 512;" xml:space="preserve">
<style type="text/css">
	.st0{fill:#666666;}
</style>
<path class="st0" d="M278.9,511.5l-61-17.7c-6.4-1.8-10-8.5-8.2-14.9L346.2,8.7c1.8-6.4,8.5-10,14.9-8.2l61,17.7
	c6.4,1.8,10,8.5,8.2,14.9L293.8,503.3C291.9,509.7,285.3,513.4,278.9,511.5z M164.9,399.3l43.5-46.4c4.6-4.9,4.3-12.7-0.8-17.2
	L117,256l90.6-79.7c5.1-4.5,5.5-12.3,0.8-17.2l-43.5-46.4c-4.5-4.8-12.1-5.1-17-0.5L3.8,247.2c-5.1,4.7-5.1,12.8,0,17.5l144.1,135.1
	C152.8,404.4,160.4,404.2,164.9,399.3L164.9,399.3z M492.1,399.9l144.1-135.1c5.1-4.7,5.1-12.8,0-17.5L492.1,112.1
	c-4.8-4.5-12.4-4.3-17,0.5L431.6,159c-4.6,4.9-4.3,12.7,0.8,17.2L523,256l-90.6,79.7c-5.1,4.5-5.5,12.3-0.8,17.2l43.5,46.4
	C479.6,404.2,487.2,404.4,492.1,399.9L492.1,399.9z"/>
</svg>
