<svg version="1.1" xmlns="http://www.w3.org/2000/svg" viewBox="0 0 512 512" xmlns:xlink="http://www.w3.org/1999/xlink" enable-background="new 0 0 512 512">
  <g>
    <g>
      <path d="m434.2,109.1h-89.7l-23.4-57.8c-3.1-7.7-10.6-12.8-18.9-12.8h-92.3c-8.3,0-15.8,5-18.9,12.8l-23.4,57.8h-89.8c-36.9,0-66.8,30-66.8,66.8v230.7c0,36.9 30,66.8 66.8,66.8h356.3c36.9,0 66.8-30 66.8-66.8v-230.7c0.1-36.8-29.9-66.8-66.7-66.8zm-210.6-29.8h64.8l12,29.7h-88.9l12.1-29.7zm236.6,327.3c0,14.3-11.7,26-26,26h-356.4c-14.3,0-26-11.7-26-26v-230.7c0-14.3 11.7-26 26-26h356.3c14.3,0 26,11.7 26,26v230.7z"/>
      <path d="m256,179.7c-61.5,0-111.6,50.1-111.6,111.6 0,61.6 50.1,111.6 111.6,111.6s111.6-50.1 111.6-111.6c0-61.6-50.1-111.6-111.6-111.6zm0,182.4c-39,0-70.8-31.8-70.8-70.8 0-39 31.8-70.8 70.8-70.8 39,0 70.8,31.8 70.8,70.8 0,39-31.8,70.8-70.8,70.8z"/>
    </g>
  </g>
</svg>
