<?xml version="1.0" encoding="utf-8"?>
<!-- Generator: Adobe Illustrator 24.0.1, SVG Export Plug-In . SVG Version: 6.00 Build 0)  -->
<svg version="1.1" id="レイヤー_1" focusable="false"
	 xmlns="http://www.w3.org/2000/svg" xmlns:xlink="http://www.w3.org/1999/xlink" x="0px" y="0px" viewBox="0 0 512 512"
	 style="enable-background:new 0 0 512 512;" xml:space="preserve">
<style type="text/css">
	.st0{fill:#666666;}
</style>
<path class="st0" d="M464,448H48c-26.5,0-48-21.5-48-48V112c0-26.5,21.5-48,48-48h416c26.5,0,48,21.5,48,48v288
	C512,426.5,490.5,448,464,448z M112,120c-30.9,0-56,25.1-56,56s25.1,56,56,56s56-25.1,56-56S142.9,120,112,120z M64,384h384V272
	l-87.5-87.5c-4.7-4.7-12.3-4.7-17,0L208,320l-55.5-55.5c-4.7-4.7-12.3-4.7-17,0L64,336V384z"/>
</svg>
