<svg height="100" width="100" xmlns="http://www.w3.org/2000/svg" viewBox="-4.5 -4.5 25 25"><style>.st0{fill:#000}</style><path class="st0" d="M6.1 15.1l-1.1 1c-1.4 1.4-3.7 1.4-5 0-1.4-1.4-1.4-3.7 0-5l4.4-4.4c1.4-1.4 3.7-1.4 5 0l.2.2 2-2-.4-.4c-2.2-2.2-5.8-2.2-8 0l-5.4 5.4c-2.2 2.2-2.2 5.8 0 8l.5.5c2.2 2.2 5.8 2.2 8 0l1.6-1.6-1.8-1.7z"/><path class="st0" d="M18.3-1.9l-.5-.5c-2.2-2.2-5.8-2.2-8 0L8.3-.8 10 .9l1.1-1c1.4-1.4 3.7-1.4 5 0 1.4 1.4 1.4 3.7 0 5l-4.4 4.4c-1.4 1.4-3.7 1.4-5 0L6.4 9l-2 2 .5.5c2.2 2.2 5.8 2.2 8 0l5.4-5.4c2.2-2.2 2.2-5.8 0-8z"/></svg>