<svg xmlns="http://www.w3.org/2000/svg" viewBox="0 0 160 159.8"><defs><style>.cls-1{fill:#666;}</style></defs><g id="レイヤー_2" data-name="レイヤー 2"><g id="レイヤー_2-2" data-name="レイヤー 2"><path class="cls-1" d="M102.19,70.56a36.17,36.17,0,0,0-5.6-7.33l-.44-.43a8,8,0,0,0-11.78.87c-.06.09-.13.17-.19.25a8.07,8.07,0,0,0,.87,10.75l0,0a19.5,19.5,0,0,1,5.65,13.65,18.81,18.81,0,0,1-.11,2A19.1,19.1,0,0,1,85.09,102l-35.9,35.9a19.31,19.31,0,0,1-27.29,0h0a19.32,19.32,0,0,1-5.15-18.12,19.78,19.78,0,0,1,5.47-9.49L42.54,90a7.77,7.77,0,0,0,2.12-7c0-.25-.09-.5-.13-.76A7.74,7.74,0,0,0,31.44,78.1L10.92,98.62A36.47,36.47,0,0,0,.24,120.07,35.38,35.38,0,0,0,10.41,149.4h0a35.57,35.57,0,0,0,50.27,0l35.91-35.9A35.32,35.32,0,0,0,107,88.37a36.26,36.26,0,0,0-.8-7.46A35.27,35.27,0,0,0,102.19,70.56Z"/><path class="cls-1" d="M151.54,12.31c-13.72-16.1-38-16.27-53-1.32l-32,32-3.15,3.15c-.77.77-1.49,1.58-2.19,2.41-.46.56-.89,1.14-1.31,1.73-.18.24-.38.48-.55.73q-.8,1.17-1.5,2.37c0,.06-.07.11-.1.16q-.75,1.3-1.38,2.67a35.22,35.22,0,0,0-2.58,22.52c.19.85.41,1.7.66,2.53l.12.42c.22.69.45,1.37.7,2,.08.19.15.39.23.59.25.63.52,1.24.8,1.85.1.2.18.41.28.6.38.78.78,1.56,1.22,2.31a35.81,35.81,0,0,0,5.6,7.33c.25.25.54.51.86.79a7.51,7.51,0,0,0,10.94-1.25l.54-.73A7.87,7.87,0,0,0,75,85l0,0a19.5,19.5,0,0,1-5.65-13.65,18,18,0,0,1,.12-2.08,19,19,0,0,1,.45-2.5c.06-.27.12-.54.2-.81s.18-.56.27-.84.19-.56.3-.83l.33-.78c.13-.29.26-.57.41-.85s.24-.48.37-.71.34-.58.52-.87.27-.42.41-.62.45-.63.69-.94l.37-.48c.38-.46.78-.9,1.21-1.33L87.06,45.47l23.22-23.23c7.3-7.29,19.19-8.21,26.93-1.39A19.32,19.32,0,0,1,138.12,49L117.59,69.51a8.06,8.06,0,0,0-2.25,7.13c0,.07,0,.15,0,.23a8,8,0,0,0,13.54,4.28l20.68-20.67A35.59,35.59,0,0,0,151.54,12.31Z"/></g></g></svg>