<?xml version="1.0" encoding="utf-8"?>
<!-- Generator: Adobe Illustrator 24.0.1, SVG Export Plug-In . SVG Version: 6.00 Build 0)  -->
<svg version="1.1" id="レイヤー_1" focusable="false"
	 xmlns="http://www.w3.org/2000/svg" xmlns:xlink="http://www.w3.org/1999/xlink" x="0px" y="0px" viewBox="0 0 512 512"
	 style="enable-background:new 0 0 512 512;" xml:space="preserve">
<style type="text/css">
	.st0{fill:#666666;}
</style>
<g>
	<path class="st0" d="M213.7,125.5H111.1v37.2c0,3.6-2.9,6.5-6.5,6.5H62.5c-3.6,0-6.5-2.9-6.5-6.5V59.1c0-3.6,2.9-6.5,6.5-6.5h387
		c3.6,0,6.5,2.9,6.5,6.5v103.6c0,3.6-2.9,6.5-6.5,6.5h-42c-3.6,0-6.5-2.9-6.5-6.5v-37.2H298.3v277.3h37.1c3.6,0,6.5,2.9,6.5,6.5
		v43.6c0,3.6-2.9,6.5-6.5,6.5H176.6c-3.6,0-6.5-2.9-6.5-6.5v-43.6c0-3.6,2.9-6.5,6.5-6.5h37.1L213.7,125.5L213.7,125.5z"/>
</g>
</svg>
