<svg xmlns="http://www.w3.org/2000/svg" viewBox="0 0 640 512"><style>.st0{fill:#666}</style><path class="st0" d="M320 1C179.2 1 65 115.2 65 256s114.2 255 255 255 255-114.2 255-255S460.8 1 320 1zm-57.5 313.9c3.8 3.3 4 9.1.6 12.7L231 362c-3.3 3.6-8.9 3.8-12.6.4l-106.6-99.9c-3.8-3.5-3.8-9.5 0-12.9l106.6-99.8c3.6-3.4 9.2-3.2 12.6.4l32.2 34.3c3.5 3.6 3.2 9.4-.6 12.7l-67 58.9 66.9 58.8zm159.1 47.5c-3.6 3.3-9.2 3.2-12.6-.4l-32.2-34.3c-3.5-3.6-3.2-9.4.6-12.7l67-58.9-67-59c-3.8-3.3-4-9.1-.6-12.7L409 150c3.4-3.5 9-3.7 12.6-.4l106.6 100c3.8 3.5 3.8 9.5 0 12.9l-106.6 99.9z"/></svg>
